<svg width="1342" height="235" viewBox="0 0 1342 235" fill="none" xmlns="http://www.w3.org/2000/svg">
<path d="M47.0174 235.009H0V187.991H47.0174V235.009ZM235.087 0H0.0391812V46.939H47.0566V93.9564H94.0739V140.974H141.091V187.991H188.109V235.009H235.126L235.165 0H235.087ZM325.83 120.521C325.83 68.998 354.746 39.4162 399.491 39.4554C433.383 39.4554 460.496 56.656 464.101 94.1523H435.185C430.444 74.0524 416.456 65.2366 398.825 65.2366C370.144 65.2366 356.117 87.805 356.117 120.56C356.117 153.316 369.674 176.119 398.786 176.158C416.417 176.158 430.405 167.343 435.146 147.008H464.062C460.457 184.739 433.344 201.901 399.217 201.901C354.707 201.901 325.791 172.28 325.83 120.56V120.521ZM477.383 140.895C477.383 98.4231 506.103 79.8904 535.685 79.9296C565.031 79.9296 593.947 98.4622 593.947 140.935C593.947 183.407 565.031 201.94 535.646 201.901C506.064 201.901 477.383 183.368 477.383 140.895ZM535.646 177.726C552.572 177.726 566.599 166.442 566.599 140.895C566.599 115.389 552.611 104.065 535.646 104.065C518.484 104.065 504.457 115.349 504.457 140.895C504.457 166.442 518.445 177.726 535.606 177.726H535.646ZM665.531 103.908C649.702 103.908 638.183 113.39 638.183 132.589V199.667H609.267V82.2021H638.222V106.377H639.123C641.395 96.2289 652.68 79.9687 677.52 79.9687C700.559 79.9687 718.386 93.9956 718.386 125.85V199.706H689.471V132.628C689.471 113.429 681.125 103.948 665.531 103.948V103.908ZM733.824 140.974C733.824 98.0704 760.271 79.9687 785.582 80.0079C802.743 80.0079 816.3 88.1576 821.942 99.2067V41.6104H850.858V199.746H821.903V182.819C816.261 193.868 802.704 202.018 785.543 202.018C760.232 202.018 733.824 183.916 733.824 141.013V140.974ZM792.321 177.804C808.15 177.804 823.274 166.285 823.274 140.974C823.274 115.663 808.15 104.144 792.321 104.144C776.061 104.144 760.937 115.663 760.898 140.974C760.898 166.285 776.022 177.804 792.282 177.804H792.321ZM866.452 140.778C866.452 97.4044 893.33 80.0079 924.087 80.0079C954.374 80.0079 979.215 96.7383 979.176 139.642C979.176 143.716 978.941 145.95 978.51 148.457H893.8C895.603 170.36 906.652 179.842 925.185 179.842C939.878 179.842 948.458 174.199 951.828 162.915H977.57C971.222 189.558 950.691 201.979 924.479 201.979C893.996 201.979 866.413 184.582 866.452 140.739V140.778ZM951.828 130.865C951.162 114.37 942.581 102.184 923.578 102.184C906.652 102.184 896.034 111.666 893.996 130.865H951.828ZM1051.15 103.987C1035.32 103.987 1023.8 113.469 1023.8 132.667V199.746H994.888V82.2804H1023.84V106.455H1024.74C1027.02 96.3073 1038.3 80.0471 1063.14 80.0471C1086.18 80.0471 1104.01 94.074 1104.01 125.928V199.785H1075.09V132.707C1075.09 113.508 1066.75 104.026 1051.15 104.026V103.987ZM1118.07 162.759H1143.82C1145.38 175.179 1154.86 180.155 1168.42 180.155C1180.84 180.155 1189.66 175.884 1189.66 165.932C1189.66 158.723 1184.92 155.079 1175.87 153.277L1154.2 148.536C1130.49 143.09 1121.21 130.669 1121.21 114.879C1121.21 92.7418 1140.17 80.0863 1168.42 80.0863C1198.24 80.0863 1215.16 94.3482 1215.63 119.189H1191.69C1189.89 106.298 1181.31 102.028 1168.66 102.028C1155.77 102.028 1149.22 106.298 1149.22 114.448C1149.22 121.226 1153.96 125.536 1163.45 127.339L1185.82 132.315C1204.35 136.625 1219.47 144.735 1219.47 165.305C1219.47 191.282 1195.53 202.136 1167.95 202.096C1137.9 202.096 1118.27 189.206 1118.03 162.798L1118.07 162.759ZM1229 140.856C1229 97.4827 1255.87 80.0863 1286.63 80.0863C1316.92 80.0863 1341.76 96.8166 1341.72 139.72C1341.72 143.795 1341.48 146.028 1341.05 148.536H1256.34C1258.15 170.438 1269.2 179.92 1287.73 179.92C1302.42 179.92 1311 174.278 1314.37 162.994H1340.11C1333.77 189.637 1313.23 202.057 1287.02 202.057C1256.54 202.057 1228.96 184.661 1229 140.817V140.856ZM1314.37 130.943C1313.7 114.448 1305.12 102.263 1286.16 102.263C1269.23 102.263 1258.62 111.745 1256.58 130.943H1314.41H1314.37Z" fill="#1C1D21"/>
</svg>
